<?xml version="1.0" encoding="UTF-8"?>
<svg xmlns="http://www.w3.org/2000/svg" xmlns:xlink="http://www.w3.org/1999/xlink" width="1253.72pt" height="554.01pt" viewBox="0 0 1253.72 554.01" version="1.1">
<defs>
<clipPath id="clip1">
  <path d="M 180 495 L 242 495 L 242 554.011719 L 180 554.011719 Z M 180 495 "/>
</clipPath>
<clipPath id="clip2">
  <path d="M 286 495 L 351 495 L 351 554.011719 L 286 554.011719 Z M 286 495 "/>
</clipPath>
<clipPath id="clip3">
  <path d="M 762 494 L 797 494 L 797 554.011719 L 762 554.011719 Z M 762 494 "/>
</clipPath>
<clipPath id="clip4">
  <path d="M 0 310.007813 L 68 310.007813 L 68 481.210938 L 0 481.210938 Z M 0 310.007813 "/>
</clipPath>
<clipPath id="clip5">
  <path d="M 1187 328 L 1253.71875 328 L 1253.71875 445 L 1187 445 Z M 1187 328 "/>
</clipPath>
</defs>
<g id="surface1">
<g clip-path="url(#clip1)" clip-rule="nonzero">
<path style=" stroke:none;fill-rule:nonzero;fill:rgb(11.764526%,21.568298%,42.744446%);fill-opacity:1;" d="M 229.746094 517.3125 C 229.746094 511.96875 229.582031 502.03125 228.113281 499.453125 C 227.5 498.410156 225.949219 497.808594 223.796875 497.628906 L 221.636719 497.46875 C 221.117188 496.847656 221.292969 495.738281 221.800781 495.382813 C 225.089844 495.558594 228.28125 495.640625 231.644531 495.640625 C 235.269531 495.640625 237.597656 495.558594 240.714844 495.382813 C 241.402344 495.820313 241.3125 496.9375 240.890625 497.46875 L 238.808594 497.628906 C 236.648438 497.808594 235.019531 498.578125 234.496094 499.710938 C 233.292969 502.546875 233.292969 512.46875 233.292969 517.3125 L 233.292969 527.078125 C 233.292969 534.578125 232.085938 542.527344 227.238281 547.695313 C 223.527344 551.761719 217.132813 554.003906 210.753906 554.003906 C 204.804688 554.003906 198.84375 552.875 194.617188 549.257813 C 190.046875 545.457031 187.878906 539.160156 187.878906 528.894531 L 187.878906 508.515625 C 187.878906 499.539063 187.714844 498.066406 182.703125 497.628906 L 180.558594 497.46875 C 180.035156 497.113281 180.203125 495.640625 180.722656 495.382813 C 185.03125 495.558594 187.976563 495.640625 191.421875 495.640625 C 194.96875 495.640625 197.816406 495.558594 202.03125 495.382813 C 202.558594 495.640625 202.734375 497.113281 202.214844 497.46875 L 200.140625 497.628906 C 195.136719 498.066406 194.96875 499.539063 194.96875 508.515625 L 194.96875 527.164063 C 194.96875 541.054688 199.277344 550.191406 212.480469 550.191406 C 225 550.191406 229.746094 540.367188 229.746094 527.246094 L 229.746094 517.3125 "/>
</g>
<g clip-path="url(#clip2)" clip-rule="nonzero">
<path style=" stroke:none;fill-rule:nonzero;fill:rgb(11.764526%,21.568298%,42.744446%);fill-opacity:1;" d="M 342.539063 537.949219 C 342.539063 540.535156 342.539063 550.808594 342.800781 553.050781 C 342.632813 553.5625 342.105469 554.007813 341.15625 554.007813 C 340.128906 552.535156 337.621094 549.507813 330.117188 540.976563 L 310.089844 518.1875 C 307.757813 515.507813 301.886719 508.429688 300.070313 506.527344 L 299.902344 506.527344 C 299.558594 507.566406 299.46875 509.558594 299.46875 512.125 L 299.46875 530.945313 C 299.46875 535.011719 299.558594 546.234375 301.027344 548.820313 C 301.542969 549.78125 303.269531 550.289063 305.4375 550.453125 L 308.105469 550.726563 C 308.617188 551.40625 308.535156 552.441406 307.929688 552.875 C 304.050781 552.710938 301.027344 552.621094 297.828125 552.621094 C 294.210938 552.621094 291.886719 552.710938 288.851563 552.875 C 288.25 552.441406 288.15625 551.253906 288.683594 550.726563 L 291.011719 550.453125 C 293 550.195313 294.386719 549.683594 294.808594 548.722656 C 296.015625 545.636719 295.941406 535.097656 295.941406 530.945313 L 295.941406 506.003906 C 295.941406 503.589844 295.851563 501.78125 294.035156 499.789063 C 292.824219 498.582031 290.746094 497.984375 288.683594 497.726563 L 287.222656 497.554688 C 286.699219 497.03125 286.699219 495.738281 287.382813 495.382813 C 291.011719 495.644531 295.59375 495.644531 297.132813 495.644531 C 298.527344 495.644531 299.992188 495.558594 301.109375 495.382813 C 302.835938 499.789063 313.03125 511.195313 315.867188 514.378906 L 324.242188 523.789063 C 330.207031 530.425781 334.433594 535.277344 338.492188 539.414063 L 338.65625 539.414063 C 339.007813 538.988281 339.007813 537.601563 339.007813 535.785156 L 339.007813 517.3125 C 339.007813 513.253906 338.917969 502.039063 337.28125 499.457031 C 336.765625 498.667969 335.382813 498.140625 331.925781 497.726563 L 330.460938 497.554688 C 329.863281 497.03125 329.9375 495.644531 330.636719 495.382813 C 334.597656 495.558594 337.539063 495.644531 340.816406 495.644531 C 344.527344 495.644531 346.773438 495.558594 349.699219 495.382813 C 350.394531 495.820313 350.394531 497.03125 349.878906 497.554688 L 348.671875 497.726563 C 345.910156 498.140625 344.183594 498.839844 343.84375 499.539063 C 342.371094 502.648438 342.539063 513.34375 342.539063 517.3125 L 342.539063 537.949219 "/>
</g>
<path style=" stroke:none;fill-rule:nonzero;fill:rgb(11.764526%,21.568298%,42.744446%);fill-opacity:1;" d="M 406.835938 508.773438 C 406.835938 499.617188 406.660156 498.140625 401.566406 497.726563 L 399.402344 497.554688 C 398.878906 497.199219 399.066406 495.640625 399.578125 495.382813 C 403.890625 495.566406 406.835938 495.640625 410.457031 495.640625 C 413.90625 495.640625 416.839844 495.566406 421.160156 495.382813 C 421.667969 495.640625 421.839844 497.199219 421.324219 497.554688 L 419.171875 497.726563 C 414.082031 498.140625 413.90625 499.617188 413.90625 508.773438 L 413.90625 539.5 C 413.90625 548.636719 414.082031 549.855469 419.171875 550.453125 L 421.324219 550.722656 C 421.839844 551.066406 421.667969 552.617188 421.160156 552.875 C 416.839844 552.710938 413.90625 552.617188 410.457031 552.617188 C 406.835938 552.617188 403.890625 552.710938 399.578125 552.875 C 399.066406 552.617188 398.878906 551.246094 399.402344 550.722656 L 401.566406 550.453125 C 406.660156 549.855469 406.835938 548.636719 406.835938 539.5 L 406.835938 508.773438 "/>
<path style=" stroke:none;fill-rule:nonzero;fill:rgb(11.764526%,21.568298%,42.744446%);fill-opacity:1;" d="M 476.730469 504.804688 C 474.753906 499.96875 473.457031 498.140625 469.738281 497.726563 L 468.179688 497.554688 C 467.585938 497.027344 467.664063 495.820313 468.359375 495.382813 C 470.863281 495.5625 473.621094 495.648438 477.332031 495.648438 C 481.136719 495.648438 484.15625 495.5625 487.78125 495.382813 C 488.390625 495.738281 488.558594 497.027344 487.953125 497.554688 L 486.664063 497.726563 C 483.378906 498.140625 482.691406 498.664063 482.601563 499.359375 C 482.777344 500.222656 484.238281 504.898438 486.917969 511.453125 C 490.882813 521.460938 494.867188 531.382813 499.183594 541.226563 C 501.847656 535.535156 505.480469 526.648438 507.464844 522.0625 C 509.96875 516.199219 514.027344 506.449219 515.488281 502.730469 C 516.183594 500.921875 516.269531 499.96875 516.269531 499.359375 C 516.269531 498.757813 515.402344 498.066406 512.386719 497.726563 L 510.824219 497.554688 C 510.21875 497.027344 510.398438 495.738281 511 495.382813 C 513.421875 495.5625 516.703125 495.648438 519.976563 495.648438 C 522.832031 495.648438 525.503906 495.5625 528.347656 495.382813 C 528.953125 495.738281 528.953125 497.101563 528.527344 497.554688 L 525.9375 497.726563 C 523.871094 497.886719 522.566406 498.941406 521.441406 500.746094 C 519.027344 504.804688 515.667969 511.804688 511.777344 520.597656 L 507.117188 531.210938 C 503.660156 539.160156 499.609375 549.160156 498.136719 553.75 C 497.882813 553.910156 497.53125 553.996094 497.195313 553.996094 C 496.761719 553.996094 496.332031 553.910156 495.894531 553.75 C 494.9375 550.109375 493.394531 545.894531 491.925781 542.261719 L 476.730469 504.804688 "/>
<path style=" stroke:none;fill-rule:nonzero;fill:rgb(11.764526%,21.568298%,42.744446%);fill-opacity:1;" d="M 580.636719 508.609375 C 580.636719 499.617188 580.464844 498.324219 575.378906 497.734375 L 573.996094 497.554688 C 573.480469 497.199219 573.652344 495.648438 574.167969 495.382813 C 577.882813 495.5625 580.808594 495.648438 584.347656 495.648438 L 600.574219 495.648438 C 606.105469 495.648438 611.203125 495.648438 612.234375 495.382813 C 612.746094 496.863281 613.269531 503.066406 613.617188 506.871094 C 613.269531 507.402344 611.890625 507.5625 611.460938 507.046875 C 610.167969 502.992188 609.394531 499.96875 604.894531 498.839844 C 603.085938 498.410156 600.324219 498.324219 596.519531 498.324219 L 590.308594 498.324219 C 587.730469 498.324219 587.730469 498.496094 587.730469 501.777344 L 587.730469 519.039063 C 587.730469 521.460938 587.988281 521.460938 590.566406 521.460938 L 595.589844 521.460938 C 599.195313 521.460938 601.875 521.289063 602.90625 520.9375 C 603.960938 520.597656 604.558594 520.074219 604.988281 517.914063 L 605.691406 514.375 C 606.105469 513.859375 607.566406 513.859375 607.921875 514.457031 C 607.921875 516.542969 607.566406 519.910156 607.566406 523.191406 C 607.566406 526.292969 607.921875 529.582031 607.921875 531.460938 C 607.566406 532.078125 606.105469 532.078125 605.691406 531.554688 L 604.894531 528.207031 C 604.558594 526.648438 603.960938 525.355469 602.230469 524.917969 C 601.023438 524.5625 598.9375 524.488281 595.589844 524.488281 L 590.566406 524.488281 C 587.988281 524.488281 587.730469 524.5625 587.730469 526.828125 L 587.730469 538.988281 C 587.730469 543.554688 587.988281 546.5 589.351563 547.953125 C 590.402344 548.984375 592.210938 549.9375 599.808594 549.9375 C 606.457031 549.9375 608.953125 549.59375 610.859375 548.636719 C 612.417969 547.785156 614.742188 544.765625 616.980469 540.273438 C 617.585938 539.847656 618.808594 540.097656 619.136719 540.886719 C 618.535156 543.910156 616.378906 550.546875 615.246094 552.875 C 607.484375 552.710938 599.808594 552.617188 592.128906 552.617188 L 584.347656 552.617188 C 580.636719 552.617188 577.707031 552.710938 572.609375 552.875 C 572.085938 552.617188 571.929688 551.246094 572.441406 550.722656 L 575.28125 550.453125 C 580.207031 550.035156 580.636719 548.722656 580.636719 539.679688 L 580.636719 508.609375 "/>
<path style=" stroke:none;fill-rule:nonzero;fill:rgb(11.764526%,21.568298%,42.744446%);fill-opacity:1;" d="M 681.265625 521.03125 C 681.265625 522.574219 681.265625 523.527344 681.519531 523.890625 C 681.78125 524.140625 683.074219 524.304688 687.476563 524.304688 C 690.589844 524.304688 693.871094 523.960938 696.367188 522.0625 C 698.691406 520.253906 700.675781 517.238281 700.675781 511.367188 C 700.675781 504.535156 696.464844 498.070313 686.867188 498.070313 C 681.519531 498.070313 681.265625 498.410156 681.265625 500.824219 Z M 674.179688 508.691406 C 674.179688 500.480469 673.921875 499.011719 670.386719 498.585938 L 667.617188 498.242188 C 667.019531 497.808594 667.019531 496.417969 667.714844 496.082031 C 672.535156 495.648438 678.507813 495.382813 686.953125 495.382813 C 692.316406 495.382813 697.394531 495.820313 701.371094 497.980469 C 705.507813 500.136719 708.53125 504.023438 708.53125 510.078125 C 708.53125 518.265625 702.0625 522.753906 697.746094 524.488281 C 697.316406 525 697.746094 525.875 698.175781 526.5625 C 705.078125 537.691406 709.660156 544.605469 715.53125 549.515625 C 717.003906 550.808594 719.160156 551.761719 721.484375 551.921875 C 721.925781 552.105469 722 552.792969 721.570313 553.136719 C 720.796875 553.386719 719.410156 553.5625 717.777344 553.5625 C 710.4375 553.5625 706.035156 551.410156 699.914063 542.703125 C 697.660156 539.5 694.128906 533.539063 691.449219 529.667969 C 690.152344 527.761719 688.765625 526.90625 685.316406 526.90625 C 681.425781 526.90625 681.265625 526.992188 681.265625 528.816406 L 681.265625 539.679688 C 681.265625 548.722656 681.425781 549.78125 686.449219 550.453125 L 688.246094 550.726563 C 688.765625 551.152344 688.605469 552.617188 688.082031 552.875 C 684.203125 552.710938 681.265625 552.617188 677.808594 552.617188 C 674.179688 552.617188 671.066406 552.710938 667.019531 552.875 C 666.507813 552.617188 666.324219 551.324219 666.847656 550.726563 L 669 550.453125 C 674.007813 549.855469 674.179688 548.722656 674.179688 539.679688 L 674.179688 508.691406 "/>
<g clip-path="url(#clip3)" clip-rule="nonzero">
<path style=" stroke:none;fill-rule:nonzero;fill:rgb(11.764526%,21.568298%,42.744446%);fill-opacity:1;" d="M 778.5 554.003906 C 771.253906 554.003906 766.671875 551.761719 765.027344 550.808594 C 764 548.910156 762.886719 542.78125 762.703125 538.726563 C 763.144531 538.113281 764.429688 537.949219 764.789063 538.472656 C 766.070313 542.871094 769.613281 551.324219 779.628906 551.324219 C 786.871094 551.324219 790.421875 546.59375 790.421875 541.402344 C 790.421875 537.601563 789.632813 533.367188 783.339844 529.320313 L 775.148438 523.96875 C 770.816406 521.109375 765.8125 516.199219 765.8125 509.128906 C 765.8125 500.921875 772.214844 494.269531 783.425781 494.269531 C 786.097656 494.269531 789.199219 494.785156 791.453125 495.382813 C 792.574219 495.738281 793.773438 495.902344 794.472656 495.902344 C 795.242188 497.980469 796.023438 502.8125 796.023438 506.449219 C 795.683594 506.964844 794.296875 507.21875 793.875 506.699219 C 792.746094 502.546875 790.421875 496.9375 782.125 496.9375 C 773.679688 496.9375 771.851563 502.546875 771.851563 506.527344 C 771.851563 511.546875 776.003906 515.15625 779.191406 517.132813 L 786.097656 521.460938 C 791.539063 524.824219 796.898438 529.824219 796.898438 538.027344 C 796.898438 547.523438 789.726563 554.003906 778.5 554.003906 "/>
</g>
<path style=" stroke:none;fill-rule:nonzero;fill:rgb(11.764526%,21.568298%,42.744446%);fill-opacity:1;" d="M 855.5625 508.773438 C 855.5625 499.617188 855.402344 498.140625 850.296875 497.726563 L 848.144531 497.554688 C 847.617188 497.199219 847.804688 495.640625 848.316406 495.382813 C 852.636719 495.566406 855.5625 495.640625 859.179688 495.640625 C 862.648438 495.640625 865.570313 495.566406 869.910156 495.382813 C 870.425781 495.640625 870.589844 497.199219 870.074219 497.554688 L 867.902344 497.726563 C 862.824219 498.140625 862.648438 499.617188 862.648438 508.773438 L 862.648438 539.5 C 862.648438 548.636719 862.824219 549.855469 867.902344 550.453125 L 870.074219 550.722656 C 870.589844 551.066406 870.425781 552.617188 869.910156 552.875 C 865.570313 552.710938 862.648438 552.617188 859.179688 552.617188 C 855.5625 552.617188 852.636719 552.710938 848.316406 552.875 C 847.804688 552.617188 847.617188 551.246094 848.144531 550.722656 L 850.296875 550.453125 C 855.402344 549.855469 855.5625 548.636719 855.5625 539.5 L 855.5625 508.773438 "/>
<path style=" stroke:none;fill-rule:nonzero;fill:rgb(11.764526%,21.568298%,42.744446%);fill-opacity:1;" d="M 951.394531 539.679688 C 951.394531 548.722656 951.558594 550.03125 956.554688 550.453125 L 959.335938 550.726563 C 959.855469 551.0625 959.667969 552.621094 959.15625 552.882813 C 954.230469 552.707031 951.296875 552.621094 947.839844 552.621094 C 944.386719 552.621094 941.378906 552.707031 935.839844 552.882813 C 935.320313 552.621094 935.167969 551.148438 935.839844 550.726563 L 938.960938 550.453125 C 943.878906 550.03125 944.300781 548.722656 944.300781 539.679688 L 944.300781 501.082031 C 944.300781 498.40625 944.300781 498.332031 941.714844 498.332031 L 936.96875 498.332031 C 933.257813 498.332031 928.519531 498.5 926.34375 500.480469 C 924.285156 502.390625 923.414063 504.28125 922.46875 506.457031 C 921.789063 506.957031 920.554688 506.527344 920.214844 505.84375 C 921.613281 501.953125 922.898438 496.414063 923.5 492.972656 C 923.769531 492.816406 924.886719 492.71875 925.136719 492.972656 C 925.660156 495.738281 928.519531 495.644531 932.480469 495.644531 L 967.453125 495.644531 C 972.109375 495.644531 972.886719 495.480469 974.171875 493.238281 C 974.609375 493.074219 975.566406 493.152344 975.722656 493.488281 C 974.765625 497.027344 974.171875 504.019531 974.4375 506.621094 C 974.101563 507.308594 972.628906 507.308594 972.1875 506.785156 C 971.929688 504.632813 971.316406 501.4375 970.042969 500.480469 C 968.050781 499.011719 964.777344 498.332031 960.007813 498.332031 L 953.886719 498.332031 C 951.296875 498.332031 951.394531 498.40625 951.394531 501.261719 L 951.394531 539.679688 "/>
<path style=" stroke:none;fill-rule:nonzero;fill:rgb(11.764526%,21.568298%,42.744446%);fill-opacity:1;" d="M 1049.769531 539.5 C 1049.769531 548.722656 1050.28125 550.109375 1054.949219 550.453125 L 1058.238281 550.722656 C 1058.75 551.246094 1058.578125 552.617188 1058.058594 552.875 C 1052.710938 552.710938 1049.769531 552.617188 1046.320313 552.617188 C 1042.679688 552.617188 1039.578125 552.710938 1035.011719 552.875 C 1034.488281 552.617188 1034.300781 551.246094 1034.820313 550.722656 L 1037.519531 550.453125 C 1042.53125 549.9375 1042.679688 548.722656 1042.679688 539.5 L 1042.679688 535.089844 C 1042.679688 530.351563 1042.421875 529.230469 1039.929688 524.402344 L 1029.75 504.535156 C 1026.800781 498.839844 1025.519531 498.410156 1022.921875 497.980469 L 1020.511719 497.554688 C 1019.980469 496.9375 1020.078125 495.738281 1020.671875 495.382813 C 1023.441406 495.558594 1026.550781 495.648438 1030.699219 495.648438 C 1034.660156 495.648438 1037.761719 495.558594 1039.929688 495.382813 C 1040.699219 495.648438 1040.699219 497.027344 1040.191406 497.554688 L 1039.078125 497.726563 C 1036.050781 498.152344 1035.429688 498.578125 1035.429688 499.277344 C 1035.429688 500.136719 1037.679688 505.054688 1038.109375 505.933594 C 1041.300781 512.308594 1044.5 519.125 1047.871094 525.097656 C 1050.53125 520.507813 1053.390625 515.503906 1055.980469 510.503906 C 1058.398438 506.003906 1061.578125 500.136719 1061.578125 499.09375 C 1061.578125 498.578125 1060.039063 497.980469 1057.980469 497.726563 L 1056.410156 497.554688 C 1055.808594 496.9375 1055.910156 495.738281 1056.589844 495.382813 C 1059.691406 495.558594 1062.199219 495.648438 1064.878906 495.648438 C 1067.550781 495.648438 1069.960938 495.558594 1072.898438 495.382813 C 1073.601563 495.828125 1073.679688 497.027344 1073.089844 497.554688 L 1070.660156 497.980469 C 1066.171875 498.757813 1063.570313 504.203125 1059.261719 511.628906 L 1053.839844 521.03125 C 1050.019531 527.601563 1049.769531 528.371094 1049.769531 535.011719 L 1049.769531 539.5 "/>
<path style=" stroke:none;fill-rule:evenodd;fill:rgb(11.764526%,21.568298%,42.744446%);fill-opacity:1;" d="M 605.726563 158.152344 C 601.347656 156.46875 596.871094 155.128906 592.316406 154.144531 C 591.34375 157.292969 590.0625 160.339844 588.488281 163.265625 C 592.125 164.019531 595.730469 165.039063 599.242188 166.359375 C 601.765625 163.949219 603.941406 161.1875 605.726563 158.152344 M 547.3125 166.359375 C 550.800781 165.054688 554.375 164.027344 558.019531 163.28125 C 556.4375 160.339844 555.140625 157.292969 554.171875 154.164063 C 549.640625 155.132813 545.191406 156.480469 540.824219 158.152344 C 542.601563 161.1875 544.789063 163.949219 547.3125 166.359375 M 540.824219 120.195313 C 545.191406 121.886719 549.640625 123.21875 554.171875 124.199219 C 555.140625 121.058594 556.4375 118.019531 558.007813 115.09375 C 554.375 114.332031 550.800781 113.3125 547.3125 112.007813 C 544.789063 114.421875 542.601563 117.179688 540.824219 120.195313 M 599.242188 112.007813 C 595.730469 113.3125 592.144531 114.347656 588.488281 115.109375 C 590.074219 118.03125 591.34375 121.070313 592.316406 124.203125 C 596.871094 123.230469 601.347656 121.890625 605.726563 120.195313 C 603.941406 117.179688 601.765625 114.421875 599.242188 112.007813 M 610.808594 137.398438 C 610.582031 132.417969 609.386719 127.667969 607.371094 123.359375 C 602.773438 125.164063 598.0625 126.585938 593.273438 127.628906 C 594.027344 130.820313 594.464844 134.097656 594.578125 137.398438 Z M 593.273438 150.734375 C 598.0625 151.773438 602.773438 153.203125 607.371094 154.992188 C 609.386719 150.695313 610.582031 145.949219 610.808594 140.949219 L 594.578125 140.949219 C 594.464844 144.253906 594.027344 147.539063 593.273438 150.734375 M 589.800781 150.046875 C 590.496094 147.070313 590.929688 144.035156 591.039063 140.949219 L 575.046875 140.949219 L 575.046875 148.601563 C 580.03125 148.703125 584.960938 149.171875 589.800781 150.046875 M 584.828125 162.597656 C 586.476563 159.679688 587.808594 156.609375 588.824219 153.464844 C 584.296875 152.683594 579.699219 152.238281 575.046875 152.15625 L 575.046875 161.734375 C 578.316406 161.808594 581.585938 162.09375 584.828125 162.597656 M 578.671875 176.382813 C 585.1875 175.425781 591.144531 172.824219 596.140625 169.003906 C 593.03125 167.9375 589.839844 167.105469 586.628906 166.488281 C 584.394531 170.027344 581.746094 173.34375 578.671875 176.382813 M 582.769531 165.859375 C 580.214844 165.53125 577.632813 165.339844 575.046875 165.261719 L 575.046875 174.9375 C 578.003906 172.167969 580.601563 169.128906 582.769531 165.859375 M 559.871094 166.507813 C 556.664063 167.109375 553.515625 167.945313 550.414063 169.003906 C 555.375 172.816406 561.324219 175.421875 567.820313 176.367188 C 564.753906 173.335938 562.101563 170.027344 559.871094 166.507813 M 563.710938 165.886719 C 565.910156 169.152344 568.511719 172.207031 571.496094 174.992188 L 571.496094 165.261719 C 568.902344 165.339844 566.296875 165.539063 563.710938 165.886719 M 557.691406 153.472656 C 558.691406 156.628906 560.023438 159.695313 561.6875 162.605469 C 564.9375 162.09375 568.214844 161.808594 571.496094 161.734375 L 571.496094 152.15625 C 566.835938 152.238281 562.230469 152.695313 557.691406 153.472656 M 556.703125 150.046875 C 561.5625 149.171875 566.503906 148.703125 571.496094 148.601563 L 571.496094 140.949219 L 555.453125 140.949219 C 555.582031 144.035156 555.980469 147.074219 556.703125 150.046875 M 535.746094 140.949219 C 535.972656 145.953125 537.160156 150.695313 539.175781 154.992188 C 543.757813 153.203125 548.441406 151.78125 553.226563 150.742188 C 552.464844 147.539063 552.03125 144.261719 551.914063 140.949219 Z M 553.226563 127.628906 C 548.441406 126.578125 543.757813 125.160156 539.175781 123.359375 C 537.160156 127.667969 535.972656 132.417969 535.746094 137.398438 L 551.914063 137.398438 C 552.03125 134.097656 552.464844 130.816406 553.226563 127.628906 M 556.695313 128.304688 C 555.980469 131.289063 555.5625 134.332031 555.453125 137.398438 L 571.496094 137.398438 L 571.496094 129.746094 C 566.503906 129.660156 561.558594 129.175781 556.695313 128.304688 M 561.671875 115.769531 C 560.011719 118.675781 558.691406 121.726563 557.675781 124.882813 C 562.230469 125.667969 566.835938 126.117188 571.496094 126.210938 L 571.496094 116.644531 C 568.195313 116.5625 564.894531 116.277344 561.671875 115.769531 M 567.820313 101.988281 C 561.324219 102.933594 555.375 105.539063 550.414063 109.355469 C 553.515625 110.414063 556.664063 111.25 559.871094 111.847656 C 562.101563 108.339844 564.753906 105.015625 567.820313 101.988281 M 563.710938 112.476563 C 566.296875 112.824219 568.902344 113.023438 571.496094 113.078125 L 571.496094 103.371094 C 568.511719 106.144531 565.910156 109.210938 563.710938 112.476563 M 586.628906 111.859375 C 589.839844 111.25 593.03125 110.414063 596.140625 109.355469 C 591.144531 105.523438 585.1875 102.921875 578.671875 101.984375 C 581.746094 105.003906 584.394531 108.339844 586.628906 111.859375 M 582.777344 112.480469 C 580.601563 109.234375 578.003906 106.1875 575.046875 103.429688 L 575.046875 113.078125 C 577.632813 113.023438 580.214844 112.832031 582.777344 112.480469 M 588.824219 124.886719 C 587.820313 121.738281 586.492188 118.683594 584.839844 115.777344 C 581.613281 116.277344 578.335938 116.5625 575.046875 116.644531 L 575.046875 126.210938 C 579.699219 126.117188 584.296875 125.667969 588.824219 124.886719 M 575.046875 137.398438 L 591.039063 137.398438 C 590.929688 134.332031 590.507813 131.296875 589.800781 128.316406 C 584.960938 129.175781 580.03125 129.660156 575.046875 129.746094 Z M 573.269531 98.003906 C 550.570313 98.003906 532.101563 116.472656 532.101563 139.171875 C 532.101563 161.886719 550.570313 180.355469 573.269531 180.355469 C 595.976563 180.355469 614.453125 161.886719 614.453125 139.171875 C 614.453125 116.472656 595.976563 98.003906 573.269531 98.003906 M 621.546875 77.234375 C 583.605469 77.59375 545.722656 81.660156 508.796875 89.507813 C 525.074219 192.652344 589.523438 242.875 621.546875 260.558594 L 621.546875 77.234375 "/>
<path style=" stroke:none;fill-rule:nonzero;fill:rgb(11.764526%,21.568298%,42.744446%);fill-opacity:1;" d="M 626.835938 17.863281 C 608.429688 11.09375 582.082031 9.621094 566.070313 12.976563 L 559.089844 18.402344 L 557.222656 18.683594 C 556.582031 18.769531 556.097656 19.214844 555.882813 19.613281 L 536.410156 62.660156 C 535.78125 63.851563 536.761719 64.863281 537.882813 64.644531 C 567.527344 59.011719 598.957031 57.28125 626.847656 57.28125 L 626.871094 57.28125 C 654.757813 57.28125 686.203125 59.011719 715.839844 64.644531 C 716.960938 64.863281 717.953125 63.851563 717.316406 62.660156 L 697.835938 19.613281 C 697.628906 19.214844 697.132813 18.769531 696.507813 18.683594 L 694.628906 18.402344 L 687.652344 12.976563 C 671.640625 9.621094 645.285156 11.09375 626.886719 17.863281 Z M 504.980469 39.496094 L 504.972656 18.339844 C 504.972656 15.464844 506.964844 13.070313 509.613281 12.402344 L 509.761719 12.359375 C 547.527344 4.28125 586.699219 0 626.859375 0 C 666.976563 0 706.097656 4.265625 743.804688 12.328125 L 743.898438 12.359375 C 746.65625 12.933594 748.75 15.398438 748.75 18.339844 L 748.746094 39.496094 C 748.746094 53.402344 747.902344 66.511719 746.394531 78.933594 C 668.117188 62.402344 585.742188 62.398438 507.339844 78.960938 C 505.824219 66.527344 504.980469 53.414063 504.980469 39.496094 "/>
<path style=" stroke:none;fill-rule:nonzero;fill:rgb(11.764526%,21.568298%,42.744446%);fill-opacity:1;" d="M 625.371094 51.390625 C 601.371094 43.53125 573.863281 42.34375 554.292969 46.039063 L 563.96875 18.519531 L 557.542969 23.390625 L 544.199219 58.136719 C 562 55.25 602.21875 51.992188 622.132813 52.269531 C 622.945313 51.90625 623.945313 51.390625 625.371094 51.390625 "/>
<path style=" stroke:none;fill-rule:nonzero;fill:rgb(11.764526%,21.568298%,42.744446%);fill-opacity:1;" d="M 628.050781 51.390625 C 652.046875 43.53125 679.589844 42.34375 699.171875 46.039063 L 689.453125 18.519531 L 695.878906 23.390625 L 709.238281 58.136719 C 691.4375 55.25 651.21875 51.992188 631.289063 52.269531 C 630.492188 51.90625 629.488281 51.390625 628.050781 51.390625 "/>
<path style=" stroke:none;fill-rule:nonzero;fill:rgb(11.764526%,21.568298%,42.744446%);fill-opacity:1;" d="M 632.183594 154.859375 L 632.183594 260.550781 C 638.617188 257.011719 646.351563 252.113281 654.75 245.792969 L 654.75 169.867188 L 632.183594 154.859375 "/>
<path style=" stroke:none;fill-rule:nonzero;fill:rgb(11.764526%,21.568298%,42.744446%);fill-opacity:1;" d="M 654.75 77.917969 C 647.238281 77.558594 639.707031 77.304688 632.183594 77.234375 L 632.183594 102.324219 L 654.75 117.324219 L 654.75 77.917969 "/>
<path style=" stroke:none;fill-rule:nonzero;fill:rgb(11.764526%,21.568298%,42.744446%);fill-opacity:1;" d="M 699.871094 147.378906 L 699.871094 81.917969 C 692.375 80.964844 684.863281 80.09375 677.316406 79.425781 L 677.316406 132.347656 L 699.871094 147.378906 "/>
<path style=" stroke:none;fill-rule:nonzero;fill:rgb(11.764526%,21.568298%,42.744446%);fill-opacity:1;" d="M 677.316406 184.898438 L 677.316406 226.175781 C 684.898438 218.648438 692.546875 209.914063 699.871094 199.980469 L 699.871094 199.910156 L 677.316406 184.898438 "/>
<path style=" stroke:none;fill-rule:nonzero;fill:rgb(11.764526%,21.568298%,42.744446%);fill-opacity:1;" d="M 699.871094 199.980469 C 699.882813 199.964844 699.898438 199.960938 699.910156 199.945313 L 699.871094 199.914063 L 699.871094 199.980469 "/>
<path style=" stroke:none;fill-rule:nonzero;fill:rgb(11.764526%,21.568298%,42.744446%);fill-opacity:1;" d="M 722.484375 162.425781 C 732.449219 141.761719 740.496094 117.609375 744.941406 89.484375 C 737.46875 87.898438 729.984375 86.492188 722.429688 85.226563 L 722.429688 162.382813 L 722.484375 162.425781 "/>
<path style=" stroke:none;fill-rule:nonzero;fill:rgb(11.764526%,21.568298%,42.744446%);fill-opacity:1;" d="M 654.75 117.34375 L 654.75 169.882813 L 677.316406 184.898438 L 677.316406 132.34375 L 654.75 117.34375 "/>
<path style=" stroke:none;fill-rule:nonzero;fill:rgb(11.764526%,21.568298%,42.744446%);fill-opacity:1;" d="M 722.429688 162.382813 L 699.871094 147.378906 L 699.871094 199.921875 L 699.910156 199.949219 C 707.980469 189.015625 715.644531 176.570313 722.429688 162.542969 L 722.429688 162.382813 "/>
<path style=" stroke:none;fill-rule:nonzero;fill:rgb(11.764526%,21.568298%,42.744446%);fill-opacity:1;" d="M 722.429688 162.546875 C 722.441406 162.503906 722.464844 162.453125 722.484375 162.421875 L 722.429688 162.386719 L 722.429688 162.546875 "/>
<g clip-path="url(#clip4)" clip-rule="nonzero">
<path style=" stroke:none;fill-rule:nonzero;fill:rgb(11.764526%,21.568298%,42.744446%);fill-opacity:1;" d="M 35.859375 340.726563 C 35.859375 318.738281 33.871094 316.351563 22.191406 315.355469 L 17.234375 314.964844 C 16.039063 314.175781 16.445313 310.613281 17.628906 310.015625 C 29.128906 310.402344 35.859375 310.613281 44.175781 310.613281 C 52.101563 310.613281 58.84375 310.402344 66.765625 310.015625 C 67.960938 310.613281 68.359375 314.175781 67.160156 314.964844 L 64.199219 315.355469 C 52.515625 316.953125 52.101563 319.722656 52.101563 340.726563 L 52.101563 414.242188 C 52.101563 429.890625 51.3125 443.5625 47.558594 452.671875 C 41.003906 468.539063 26.941406 481.21875 8.523438 481.21875 C 6.136719 481.21875 0.00390625 481.019531 0.00390625 477.046875 C 0.00390625 473.691406 2.960938 467.941406 7.125 467.941406 C 9.503906 467.941406 11.882813 468.328125 14.464844 469.121094 C 17.234375 469.929688 20.015625 470.515625 22.78125 470.515625 C 26.941406 470.515625 29.324219 468.148438 30.707031 465.367188 C 35.257813 456.054688 35.859375 426.316406 35.859375 415.636719 L 35.859375 340.726563 "/>
</g>
<path style=" stroke:none;fill-rule:nonzero;fill:rgb(11.764526%,21.568298%,42.744446%);fill-opacity:1;" d="M 167.550781 390.898438 C 167.550781 363.320313 155.34375 333.570313 123.417969 333.570313 C 106.03125 333.570313 83.46875 345.441406 83.46875 382.046875 C 83.46875 406.769531 95.5 438.882813 128.4375 438.882813 C 148.492188 438.882813 167.550781 423.835938 167.550781 390.898438 M 66.738281 387.394531 C 66.738281 353.960938 91.824219 328.378906 126.25 328.378906 C 164.871094 328.378906 184.265625 356.300781 184.265625 385.730469 C 184.265625 419.484375 158.523438 444.066406 126.25 444.066406 C 89.148438 444.066406 66.738281 417.480469 66.738281 387.394531 "/>
<path style=" stroke:none;fill-rule:nonzero;fill:rgb(11.764526%,21.568298%,42.744446%);fill-opacity:1;" d="M 222.238281 387.398438 C 214.222656 387.398438 213.882813 387.734375 213.882813 392.742188 L 213.882813 416.3125 C 213.882813 433.859375 214.722656 436.199219 224.074219 437.207031 L 228.921875 437.714844 C 229.925781 438.367188 229.59375 441.386719 228.589844 441.878906 C 219.554688 441.542969 213.882813 441.386719 207.351563 441.386719 C 200.175781 441.386719 194.496094 441.726563 187.96875 441.878906 C 186.964844 441.386719 186.644531 438.703125 187.644531 437.714844 L 190.480469 437.207031 C 199.835938 435.539063 200.175781 433.859375 200.175781 416.3125 L 200.175781 356.128906 C 200.175781 338.574219 199.011719 335.734375 190.308594 335.0625 L 185.953125 334.734375 C 184.960938 334.0625 185.300781 331.046875 186.296875 330.554688 C 194.496094 330.71875 200.175781 331.046875 207.351563 331.046875 C 213.882813 331.046875 219.554688 330.890625 226.742188 330.554688 C 227.753906 331.046875 228.09375 334.0625 227.070313 334.734375 L 223.90625 335.0625 C 214.222656 336.078125 213.882813 338.574219 213.882813 356.128906 L 213.882813 375.351563 C 213.882813 380.535156 214.222656 380.707031 222.238281 380.707031 L 270.046875 380.707031 C 278.066406 380.707031 278.40625 380.535156 278.40625 375.351563 L 278.40625 356.128906 C 278.40625 338.574219 278.066406 336.078125 268.214844 335.0625 L 265.03125 334.734375 C 264.027344 334.0625 264.359375 331.046875 265.367188 330.554688 C 273.042969 330.890625 278.726563 331.046875 285.601563 331.046875 C 292.105469 331.046875 297.804688 330.890625 305.324219 330.554688 C 306.304688 331.046875 306.652344 334.0625 305.664063 334.734375 L 302.144531 335.0625 C 292.449219 336.078125 292.105469 338.574219 292.105469 356.128906 L 292.105469 416.3125 C 292.105469 433.859375 292.449219 436.035156 302.144531 437.207031 L 306.144531 437.714844 C 307.148438 438.367188 306.816406 441.386719 305.820313 441.878906 C 297.804688 441.542969 292.105469 441.386719 285.601563 441.386719 C 278.726563 441.386719 272.722656 441.542969 265.367188 441.878906 C 264.359375 441.386719 264.027344 438.703125 265.03125 437.714844 L 268.214844 437.207031 C 278.40625 435.539063 278.40625 433.859375 278.40625 416.3125 L 278.40625 392.742188 C 278.40625 387.734375 278.066406 387.398438 270.046875 387.398438 L 222.238281 387.398438 "/>
<path style=" stroke:none;fill-rule:nonzero;fill:rgb(11.764526%,21.568298%,42.744446%);fill-opacity:1;" d="M 420.335938 412.964844 C 420.335938 417.988281 420.335938 437.875 420.824219 442.222656 C 420.503906 443.222656 419.503906 444.0625 417.671875 444.0625 C 415.652344 441.230469 410.804688 435.375 396.253906 418.828125 L 357.484375 374.6875 C 352.980469 369.511719 341.59375 355.800781 338.09375 352.121094 L 337.757813 352.121094 C 337.085938 354.132813 336.921875 357.96875 336.921875 362.984375 L 336.921875 399.433594 C 336.921875 407.277344 337.085938 429.015625 339.929688 434.023438 C 340.941406 435.867188 344.277344 436.882813 348.457031 437.203125 L 353.628906 437.714844 C 354.644531 439.046875 354.472656 441.050781 353.300781 441.878906 C 345.78125 441.542969 339.929688 441.378906 333.734375 441.378906 C 326.734375 441.378906 322.222656 441.542969 316.347656 441.878906 C 315.179688 441.050781 315.023438 438.707031 316.027344 437.714844 L 320.542969 437.203125 C 324.394531 436.699219 327.050781 435.710938 327.902344 433.859375 C 330.234375 427.835938 330.070313 407.453125 330.070313 399.433594 L 330.070313 351.117188 C 330.070313 346.4375 329.898438 342.925781 326.386719 339.085938 C 324.050781 336.746094 320.046875 335.578125 316.027344 335.0625 L 313.191406 334.742188 C 312.191406 333.738281 312.191406 331.230469 313.519531 330.554688 C 320.542969 331.039063 329.40625 331.039063 332.40625 331.039063 C 335.085938 331.039063 337.933594 330.890625 340.101563 330.554688 C 343.445313 339.085938 363.167969 361.152344 368.675781 367.328125 L 384.898438 385.542969 C 396.429688 398.417969 404.613281 407.785156 412.476563 415.804688 L 412.816406 415.804688 C 413.480469 414.972656 413.480469 412.292969 413.480469 408.785156 L 413.480469 373.011719 C 413.480469 365.160156 413.3125 343.429688 410.136719 338.414063 C 409.136719 336.902344 406.464844 335.90625 399.777344 335.0625 L 396.941406 334.742188 C 395.773438 333.738281 395.933594 331.039063 397.257813 330.554688 C 404.957031 330.890625 410.640625 331.039063 416.988281 331.039063 C 424.183594 331.039063 428.53125 330.890625 434.207031 330.554688 C 435.546875 331.390625 435.546875 333.738281 434.546875 334.742188 L 432.199219 335.0625 C 426.859375 335.90625 423.511719 337.246094 422.828125 338.574219 C 420.011719 344.601563 420.335938 365.324219 420.335938 373.011719 L 420.335938 412.964844 "/>
<path style=" stroke:none;fill-rule:nonzero;fill:rgb(11.764526%,21.568298%,42.744446%);fill-opacity:1;" d="M 464.527344 444.0625 C 450.480469 444.0625 441.613281 439.71875 438.433594 437.875 C 436.445313 434.195313 434.261719 422.335938 433.921875 414.480469 C 434.777344 413.300781 437.273438 412.953125 437.941406 413.972656 C 440.445313 422.492188 447.300781 438.882813 466.6875 438.882813 C 480.734375 438.882813 487.59375 429.691406 487.59375 419.640625 C 487.59375 412.292969 486.089844 404.101563 473.871094 396.257813 L 457.996094 385.882813 C 449.636719 380.367188 439.953125 370.828125 439.953125 357.136719 C 439.953125 341.25 452.3125 328.386719 474.039063 328.386719 C 479.226563 328.386719 485.253906 329.382813 489.589844 330.554688 C 491.761719 331.230469 494.101563 331.5625 495.425781 331.5625 C 496.9375 335.578125 498.449219 344.9375 498.449219 351.957031 C 497.789063 352.960938 495.109375 353.441406 494.265625 352.457031 C 492.101563 344.429688 487.59375 333.574219 471.535156 333.574219 C 455.164063 333.574219 451.644531 344.429688 451.644531 352.121094 C 451.644531 361.8125 459.679688 368.832031 465.851563 372.6875 L 479.226563 381.03125 C 489.765625 387.5625 500.121094 397.246094 500.121094 413.136719 C 500.121094 431.519531 486.246094 444.0625 464.527344 444.0625 "/>
<path style=" stroke:none;fill-rule:nonzero;fill:rgb(11.764526%,21.568298%,42.744446%);fill-opacity:1;" d="M 599.34375 377.386719 C 589.824219 377.386719 589.429688 377.78125 589.429688 383.722656 L 589.429688 411.667969 C 589.429688 432.46875 590.421875 435.246094 601.515625 436.4375 L 607.265625 437.023438 C 608.453125 437.824219 608.058594 441.378906 606.875 441.976563 C 596.179688 441.574219 589.429688 441.378906 581.707031 441.378906 C 573.1875 441.378906 566.445313 441.777344 558.734375 441.976563 C 557.53125 441.378906 557.132813 438.210938 558.332031 437.023438 L 561.699219 436.4375 C 572.789063 434.453125 573.1875 432.46875 573.1875 411.667969 L 573.1875 340.328125 C 573.1875 319.515625 571.789063 316.160156 561.503906 315.363281 L 556.339844 314.964844 C 555.160156 314.175781 555.546875 310.605469 556.742188 310.007813 C 566.445313 310.203125 573.1875 310.605469 581.707031 310.605469 C 589.429688 310.605469 596.179688 310.410156 604.691406 310.007813 C 605.882813 310.605469 606.277344 314.175781 605.078125 314.964844 L 601.316406 315.363281 C 589.824219 316.558594 589.429688 319.515625 589.429688 340.328125 L 589.429688 363.121094 C 589.429688 369.261719 589.824219 369.445313 599.34375 369.445313 L 656.007813 369.445313 C 665.523438 369.445313 665.914063 369.261719 665.914063 363.121094 L 665.914063 340.328125 C 665.914063 319.515625 665.523438 316.558594 653.824219 315.363281 L 650.066406 314.964844 C 648.875 314.175781 649.269531 310.605469 650.46875 310.007813 C 659.5625 310.410156 666.308594 310.605469 674.441406 310.605469 C 682.15625 310.605469 688.898438 310.410156 697.824219 310.007813 C 699 310.605469 699.402344 314.175781 698.203125 314.964844 L 694.050781 315.363281 C 682.5625 316.558594 682.15625 319.515625 682.15625 340.328125 L 682.15625 411.667969 C 682.15625 432.46875 682.5625 435.039063 694.050781 436.4375 L 698.804688 437.023438 C 699.996094 437.824219 699.597656 441.378906 698.402344 441.976563 C 688.898438 441.574219 682.15625 441.378906 674.441406 441.378906 C 666.308594 441.378906 659.179688 441.574219 650.46875 441.976563 C 649.269531 441.378906 648.875 438.210938 650.066406 437.023438 L 653.824219 436.4375 C 665.914063 434.453125 665.914063 432.46875 665.914063 411.667969 L 665.914063 383.722656 C 665.914063 377.78125 665.523438 377.386719 656.007813 377.386719 L 599.34375 377.386719 "/>
<path style=" stroke:none;fill-rule:nonzero;fill:rgb(11.764526%,21.568298%,42.744446%);fill-opacity:1;" d="M 798.355469 390.898438 C 798.355469 363.320313 786.15625 333.570313 754.222656 333.570313 C 736.839844 333.570313 714.273438 345.441406 714.273438 382.046875 C 714.273438 406.769531 726.308594 438.882813 759.238281 438.882813 C 779.308594 438.882813 798.355469 423.835938 798.355469 390.898438 M 697.554688 387.394531 C 697.554688 353.960938 722.628906 328.378906 757.066406 328.378906 C 795.671875 328.378906 815.066406 356.300781 815.066406 385.730469 C 815.066406 419.484375 789.328125 444.066406 757.066406 444.066406 C 719.953125 444.066406 697.554688 417.480469 697.554688 387.394531 "/>
<path style=" stroke:none;fill-rule:nonzero;fill:rgb(11.764526%,21.568298%,42.744446%);fill-opacity:1;" d="M 845.328125 416.308594 C 845.328125 433.863281 845.664063 436.03125 856.34375 437.203125 L 860.878906 437.703125 C 861.875 438.535156 861.546875 441.386719 860.539063 441.886719 C 851.015625 441.542969 845.503906 441.386719 838.800781 441.386719 C 831.78125 441.386719 825.769531 441.542969 818.414063 441.886719 C 817.410156 441.386719 817.078125 438.710938 818.085938 437.703125 L 821.589844 437.203125 C 831.289063 435.871094 831.617188 433.863281 831.617188 416.308594 L 831.617188 354.628906 C 831.617188 340.417969 831.289063 337.566406 823.765625 336.738281 L 817.746094 336.078125 C 816.578125 335.070313 816.742188 332.566406 818.085938 331.894531 C 826.941406 330.726563 837.300781 330.546875 851.179688 330.546875 C 865.046875 330.546875 875.417969 332.382813 883.269531 337.246094 C 890.953125 342.097656 896.640625 350.785156 896.640625 362.3125 C 896.640625 377.695313 887.117188 385.386719 879.925781 388.894531 C 872.570313 392.40625 863.714844 393.910156 856.855469 393.910156 C 855.691406 393.414063 855.691406 390.90625 856.6875 390.574219 C 874.742188 387.222656 881.257813 377.023438 881.257813 362.476563 C 881.257813 346.257813 871.742188 335.742188 854.355469 335.742188 C 845.503906 335.742188 845.328125 336.398438 845.328125 341.769531 L 845.328125 416.308594 "/>
<path style=" stroke:none;fill-rule:nonzero;fill:rgb(11.764526%,21.568298%,42.744446%);fill-opacity:1;" d="M 914.882813 356.121094 C 914.882813 338.578125 914.539063 335.90625 904.847656 335.070313 L 900.667969 334.742188 C 899.65625 334.058594 899.996094 331.039063 900.992188 330.546875 C 909.183594 330.890625 914.539063 331.039063 922.0625 331.039063 C 928.578125 331.039063 934.273438 330.890625 941.460938 330.546875 C 942.457031 331.039063 942.789063 334.058594 941.785156 334.742188 L 938.621094 335.070313 C 928.910156 336.078125 928.578125 338.578125 928.578125 356.121094 L 928.578125 375.363281 C 928.578125 378.535156 928.910156 381.71875 930.761719 381.71875 C 932.257813 381.71875 934.273438 380.707031 935.433594 379.863281 C 937.773438 377.867188 942.132813 373.507813 943.964844 371.839844 L 962.007813 353.960938 C 965.183594 350.957031 973.382813 342.421875 975.046875 340.074219 C 975.886719 338.910156 976.226563 338.074219 976.226563 337.402344 C 976.226563 336.746094 975.554688 336.238281 973.382813 335.734375 L 968.875 334.742188 C 967.695313 333.574219 967.863281 331.390625 969.203125 330.546875 C 975.046875 330.890625 981.730469 331.039063 987.597656 331.039063 C 993.445313 331.039063 999.117188 330.890625 1004.140625 330.546875 C 1005.300781 331.390625 1005.46875 333.730469 1004.46875 334.742188 C 1000.121094 335.070313 993.613281 336.746094 988.921875 339.414063 C 984.253906 342.089844 974.882813 349.9375 965.523438 358.816406 L 950.476563 373.015625 C 948.144531 375.363281 946.632813 376.859375 946.632813 378.203125 C 946.632813 379.367188 947.640625 380.707031 949.8125 383.371094 C 965.695313 401.59375 978.5625 416.644531 991.601563 430.339844 C 995.617188 434.359375 999.300781 436.542969 1004.988281 437.207031 L 1009.488281 437.714844 C 1010.671875 438.535156 1010.328125 441.378906 1009.148438 441.886719 C 1004.808594 441.542969 998.289063 441.378906 990.433594 441.378906 C 983.585938 441.378906 977.726563 441.542969 970.035156 441.886719 C 968.875 441.542969 968.363281 438.707031 969.371094 437.714844 L 973.214844 437.03125 C 975.554688 436.699219 977.226563 436.195313 977.226563 435.375 C 977.226563 434.359375 976.054688 433.023438 974.882813 431.507813 C 971.707031 427.503906 967.363281 422.996094 961.011719 415.804688 L 947.640625 400.757813 C 938.113281 390.066406 935.433594 386.722656 931.421875 386.722656 C 928.910156 386.722656 928.578125 388.894531 928.578125 394.753906 L 928.578125 416.3125 C 928.578125 433.855469 928.910156 436.195313 938.28125 437.207031 L 942.789063 437.714844 C 943.785156 438.375 943.46875 441.378906 942.457031 441.886719 C 934.273438 441.542969 928.578125 441.378906 922.0625 441.378906 C 915.207031 441.378906 909.523438 441.542969 902.679688 441.886719 C 901.675781 441.378906 901.328125 438.882813 902.339844 437.714844 L 905.675781 437.207031 C 914.539063 435.867188 914.882813 433.855469 914.882813 416.3125 L 914.882813 356.121094 "/>
<path style=" stroke:none;fill-rule:nonzero;fill:rgb(11.764526%,21.568298%,42.744446%);fill-opacity:1;" d="M 1029.609375 356.464844 C 1029.609375 338.730469 1029.28125 335.90625 1019.410156 335.070313 L 1015.238281 334.738281 C 1014.21875 334.0625 1014.570313 331.050781 1015.570313 330.546875 C 1023.929688 330.886719 1029.609375 331.050781 1036.628906 331.050781 C 1043.320313 331.050781 1049 330.886719 1057.359375 330.546875 C 1058.371094 331.050781 1058.699219 334.0625 1057.691406 334.738281 L 1053.511719 335.070313 C 1043.660156 335.90625 1043.320313 338.730469 1043.320313 356.464844 L 1043.320313 415.96875 C 1043.320313 433.699219 1043.660156 436.035156 1053.511719 437.207031 L 1057.691406 437.703125 C 1058.699219 438.375 1058.371094 441.378906 1057.359375 441.886719 C 1049 441.542969 1043.320313 441.378906 1036.628906 441.378906 C 1029.609375 441.378906 1023.929688 441.542969 1015.570313 441.886719 C 1014.570313 441.378906 1014.21875 438.710938 1015.238281 437.703125 L 1019.410156 437.207031 C 1029.28125 436.035156 1029.609375 433.699219 1029.609375 415.96875 L 1029.609375 356.464844 "/>
<path style=" stroke:none;fill-rule:nonzero;fill:rgb(11.764526%,21.568298%,42.744446%);fill-opacity:1;" d="M 1174.210938 412.964844 C 1174.210938 417.988281 1174.210938 437.875 1174.710938 442.222656 C 1174.378906 443.222656 1173.390625 444.0625 1171.539063 444.0625 C 1169.539063 441.230469 1164.691406 435.375 1150.148438 418.828125 L 1111.371094 374.6875 C 1106.851563 369.511719 1095.46875 355.800781 1091.96875 352.121094 L 1091.640625 352.121094 C 1090.96875 354.132813 1090.789063 357.96875 1090.789063 362.984375 L 1090.789063 399.433594 C 1090.789063 407.277344 1090.96875 429.015625 1093.808594 434.023438 C 1094.820313 435.867188 1098.160156 436.882813 1102.339844 437.203125 L 1107.519531 437.714844 C 1108.519531 439.046875 1108.359375 441.050781 1107.191406 441.878906 C 1099.660156 441.542969 1093.808594 441.378906 1087.621094 441.378906 C 1080.609375 441.378906 1076.078125 441.542969 1070.238281 441.878906 C 1069.070313 441.050781 1068.898438 438.707031 1069.898438 437.714844 L 1074.421875 437.203125 C 1078.269531 436.699219 1080.929688 435.710938 1081.769531 433.859375 C 1084.109375 427.835938 1083.949219 407.453125 1083.949219 399.433594 L 1083.949219 351.117188 C 1083.949219 346.4375 1083.789063 342.925781 1080.28125 339.085938 C 1077.929688 336.746094 1073.921875 335.578125 1069.898438 335.0625 L 1067.058594 334.742188 C 1066.058594 333.738281 1066.058594 331.230469 1067.398438 330.554688 C 1074.421875 331.039063 1083.28125 331.039063 1086.289063 331.039063 C 1088.960938 331.039063 1091.800781 330.890625 1093.96875 330.554688 C 1097.320313 339.085938 1117.050781 361.152344 1122.550781 367.328125 L 1138.78125 385.542969 C 1150.308594 398.417969 1158.488281 407.785156 1166.351563 415.804688 L 1166.691406 415.804688 C 1167.359375 414.972656 1167.359375 412.292969 1167.359375 408.785156 L 1167.359375 373.011719 C 1167.359375 365.160156 1167.191406 343.429688 1164.019531 338.414063 C 1163.019531 336.902344 1160.339844 335.90625 1153.660156 335.0625 L 1150.820313 334.742188 C 1149.640625 333.738281 1149.800781 331.039063 1151.140625 330.554688 C 1158.839844 330.890625 1164.519531 331.039063 1170.871094 331.039063 C 1178.070313 331.039063 1182.410156 330.890625 1188.089844 330.554688 C 1189.429688 331.390625 1189.429688 333.738281 1188.429688 334.742188 L 1186.089844 335.0625 C 1180.738281 335.90625 1177.390625 337.246094 1176.710938 338.574219 C 1173.878906 344.601563 1174.210938 365.324219 1174.210938 373.011719 L 1174.210938 412.964844 "/>
<g clip-path="url(#clip5)" clip-rule="nonzero">
<path style=" stroke:none;fill-rule:nonzero;fill:rgb(11.764526%,21.568298%,42.744446%);fill-opacity:1;" d="M 1218.109375 444.0625 C 1204.070313 444.0625 1195.210938 439.71875 1192.03125 437.875 C 1190.03125 434.195313 1187.851563 422.335938 1187.519531 414.480469 C 1188.359375 413.300781 1190.878906 412.953125 1191.519531 413.972656 C 1194.039063 422.492188 1200.890625 438.882813 1220.269531 438.882813 C 1234.320313 438.882813 1241.179688 429.691406 1241.179688 419.640625 C 1241.179688 412.292969 1239.671875 404.101563 1227.460938 396.257813 L 1211.589844 385.882813 C 1203.230469 380.367188 1193.53125 370.828125 1193.53125 357.136719 C 1193.53125 341.25 1205.910156 328.386719 1227.640625 328.386719 C 1232.820313 328.386719 1238.828125 329.382813 1243.179688 330.554688 C 1245.359375 331.230469 1247.699219 331.5625 1249.039063 331.5625 C 1250.550781 335.578125 1252.039063 344.9375 1252.039063 351.957031 C 1251.378906 352.960938 1248.699219 353.441406 1247.859375 352.457031 C 1245.691406 344.429688 1241.179688 333.574219 1225.128906 333.574219 C 1208.75 333.574219 1205.238281 344.429688 1205.238281 352.121094 C 1205.238281 361.8125 1213.261719 368.832031 1219.441406 372.6875 L 1232.820313 381.03125 C 1243.359375 387.5625 1253.71875 397.246094 1253.71875 413.136719 C 1253.71875 431.519531 1239.839844 444.0625 1218.109375 444.0625 "/>
</g>
</g>
</svg>
